<svg width="21" height="21" viewBox="0 0 21 21" fill="none" xmlns="http://www.w3.org/2000/svg">
<g clip-path="url(#clip0)">
<path d="M17.926 3.42494C14.0202 -0.479712 7.68847 -0.478774 3.78382 3.42708C-0.120825 7.33294 -0.119888 13.6646 3.78597 17.5692C7.69183 21.4739 14.0235 21.4729 17.9281 17.5671C19.8034 15.6913 20.8566 13.1473 20.856 10.4949C20.8554 7.84298 19.8015 5.29986 17.926 3.42494ZM16.0006 14.427C16.0002 14.4274 15.9998 14.4279 15.9993 14.4283V14.425L15.4926 14.9283C14.8373 15.5919 13.883 15.8649 12.9759 15.6483C12.0621 15.4037 11.1933 15.0143 10.4026 14.495C9.668 14.0255 8.98722 13.4767 8.37261 12.8583C7.8071 12.2969 7.29906 11.6805 6.85593 11.0183C6.37125 10.3057 5.98761 9.52947 5.71593 8.71162C5.40449 7.75084 5.66257 6.69658 6.38261 5.9883L6.97593 5.39498C7.14089 5.22927 7.40894 5.22869 7.5746 5.39365C7.57503 5.39408 7.5755 5.39451 7.57593 5.39498L9.44925 7.2683C9.61496 7.43326 9.61554 7.7013 9.45058 7.86697C9.45015 7.8674 9.44972 7.86783 9.44925 7.8683L8.34925 8.9683C8.03363 9.28048 7.99394 9.77658 8.25593 10.135C8.65378 10.681 9.09406 11.1948 9.57261 11.6717C10.1062 12.2075 10.6862 12.695 11.3059 13.1283C11.664 13.3781 12.1495 13.336 12.4593 13.0283L13.5226 11.9483C13.6875 11.7826 13.9556 11.782 14.1212 11.947C14.1217 11.9474 14.1221 11.9479 14.1226 11.9483L15.9993 13.8283C16.165 13.9933 16.1656 14.2613 16.0006 14.427Z" fill="black"/>
</g>
<defs>
<clipPath id="clip0">
<rect width="20" height="20" fill="white" transform="translate(0.856445 0.497559)"/>
</clipPath>
</defs>
</svg>
