<svg width="21" height="21" viewBox="0 0 21 21" fill="none" xmlns="http://www.w3.org/2000/svg">
<g clip-path="url(#clip0)">
<path d="M8.14819 14.8345V18.6995C8.14819 18.9695 8.32153 19.2086 8.57819 19.2936C8.64236 19.3145 8.70819 19.3245 8.77319 19.3245C8.96819 19.3245 9.15652 19.2328 9.27652 19.0695L11.5373 15.9928L8.14819 14.8345Z" fill="black"/>
<path d="M20.594 0.273622C20.4023 0.137789 20.1507 0.119455 19.9423 0.228622L1.19232 10.0203C0.970649 10.1361 0.839816 10.3728 0.858149 10.622C0.877316 10.872 1.04315 11.0853 1.27898 11.1661L6.49148 12.9478L17.5923 3.45612L9.00232 13.8053L17.7381 16.7911C17.8031 16.8128 17.8715 16.8245 17.9398 16.8245C18.0532 16.8245 18.1656 16.7936 18.2648 16.7336C18.4231 16.637 18.5306 16.4745 18.5581 16.292L20.8498 0.875289C20.884 0.641955 20.7856 0.410289 20.594 0.273622Z" fill="black"/>
</g>
<defs>
<clipPath id="clip0">
<rect width="20" height="20" fill="white" transform="translate(0.856445 0.157715)"/>
</clipPath>
</defs>
</svg>
