<svg width="8" height="11" viewBox="0 0 8 11" fill="none" xmlns="http://www.w3.org/2000/svg">
<g clip-path="url(#clip0)">
<path d="M6.87499 1.57593H6.50995V0.794678H5.90154V1.57593H1.88606V0.794678H1.27765V1.57593H0.91261C0.409397 1.57593 0 2.10163 0 2.7478V9.6228C0 10.269 0.409397 10.7947 0.91261 10.7947H6.87499C7.37821 10.7947 7.7876 10.269 7.7876 9.6228V2.7478C7.7876 2.10163 7.37821 1.57593 6.87499 1.57593ZM7.1792 9.6228C7.1792 9.83819 7.04273 10.0134 6.87499 10.0134H0.91261C0.744872 10.0134 0.608407 9.83819 0.608407 9.6228V4.46655H7.1792V9.6228ZM7.1792 3.6853H0.608407V2.7478C0.608407 2.53241 0.744872 2.35718 0.91261 2.35718H1.27765V3.13843H1.88606V2.35718H5.90154V3.13843H6.50995V2.35718H6.87499C7.04273 2.35718 7.1792 2.53241 7.1792 2.7478V3.6853Z" fill="#414141"/>
<path d="M1.76435 5.28687H1.15594V6.06812H1.76435V5.28687Z" fill="#414141"/>
<path d="M2.98121 5.28687H2.3728V6.06812H2.98121V5.28687Z" fill="#414141"/>
<path d="M4.19801 5.28687H3.5896V6.06812H4.19801V5.28687Z" fill="#414141"/>
<path d="M5.4148 5.28687H4.8064V6.06812H5.4148V5.28687Z" fill="#414141"/>
<path d="M6.63166 5.28687H6.02325V6.06812H6.63166V5.28687Z" fill="#414141"/>
<path d="M1.76435 6.84937H1.15594V7.63062H1.76435V6.84937Z" fill="#414141"/>
<path d="M2.98121 6.84937H2.3728V7.63062H2.98121V6.84937Z" fill="#414141"/>
<path d="M4.19801 6.84937H3.5896V7.63062H4.19801V6.84937Z" fill="#414141"/>
<path d="M5.4148 6.84937H4.8064V7.63062H5.4148V6.84937Z" fill="#414141"/>
<path d="M1.76435 8.41187H1.15594V9.19312H1.76435V8.41187Z" fill="#414141"/>
<path d="M2.98121 8.41187H2.3728V9.19312H2.98121V8.41187Z" fill="#414141"/>
<path d="M4.19801 8.41187H3.5896V9.19312H4.19801V8.41187Z" fill="#414141"/>
<path d="M5.4148 8.41187H4.8064V9.19312H5.4148V8.41187Z" fill="#414141"/>
<path d="M6.63166 6.84937H6.02325V7.63062H6.63166V6.84937Z" fill="#414141"/>
</g>
<defs>
<clipPath id="clip0">
<rect width="7.7876" height="10" fill="white" transform="translate(0 0.794678)"/>
</clipPath>
</defs>
</svg>
