<svg width="37" height="42" viewBox="0 0 37 42" fill="none" xmlns="http://www.w3.org/2000/svg">
<path d="M29.605 33.8326C29.7513 33.7148 29.845 33.5343 29.845 33.3318C29.845 33.3261 29.845 4.08363 29.845 4.08363C29.845 3.72828 29.5571 3.44034 29.2017 3.44034H10.5906C10.1316 1.95194 8.74338 0.867188 7.10642 0.867188C5.4958 0.867188 4.08649 1.94054 3.62289 3.44034H1.56162C1.20627 3.44034 0.918335 3.72828 0.918335 4.08363V40.5366C0.918335 40.892 1.20627 41.1799 1.56162 41.1799H21.9913C22.1993 41.1799 22.3796 41.0862 22.4976 40.9403L29.605 33.8326ZM22.6402 38.978V33.9751H27.643L22.6402 38.978ZM7.10642 2.15376C8.02101 2.15376 8.81517 2.6774 9.20629 3.44034H5.00639C5.40128 2.67285 6.20505 2.15376 7.10642 2.15376ZM2.20491 4.72692H9.46515V9.22993C9.46515 9.82116 8.98422 10.3021 8.393 10.3021C7.80177 10.3021 7.32085 9.82116 7.32085 9.22993V6.65678C7.32085 6.30143 7.03292 6.01349 6.67756 6.01349C6.32221 6.01349 6.03428 6.30143 6.03428 6.65678V9.22993C6.03428 10.5305 7.09244 11.5887 8.393 11.5887C9.69356 11.5887 10.7517 10.5305 10.7517 9.22993V4.72692H28.5585V32.6885H21.9969C21.6416 32.6885 21.3536 32.9764 21.3536 33.3318V39.8933H2.20491V4.72692Z" fill="#0BAC72"/>
<path d="M24.0554 30.5014C24.4107 30.5014 24.6987 30.2135 24.6987 29.8581C24.6987 29.5028 24.4107 29.2148 24.0554 29.2148H6.70786C6.35251 29.2148 6.06458 29.5028 6.06458 29.8581C6.06458 30.2135 6.35251 30.5014 6.70786 30.5014H24.0554Z" fill="#0BAC72"/>
<path d="M6.70786 26.642H24.0554C24.4107 26.642 24.6987 26.3541 24.6987 25.9988C24.6987 25.6434 24.4107 25.3555 24.0554 25.3555H6.70786C6.35251 25.3555 6.06458 25.6434 6.06458 25.9988C6.06458 26.3541 6.35251 26.642 6.70786 26.642Z" fill="#0BAC72"/>
<path d="M6.70786 22.7817H24.0554C24.4107 22.7817 24.6987 22.4938 24.6987 22.1384C24.6987 21.7831 24.4107 21.4951 24.0554 21.4951H6.70786C6.35251 21.4951 6.06458 21.7831 6.06458 22.1384C6.06458 22.4938 6.35251 22.7817 6.70786 22.7817Z" fill="#0BAC72"/>
<path d="M6.70786 18.9223H24.0554C24.4107 18.9223 24.6987 18.6344 24.6987 18.279C24.6987 17.9237 24.4107 17.6357 24.0554 17.6357H6.70786C6.35251 17.6357 6.06458 17.9237 6.06458 18.279C6.06458 18.6344 6.35251 18.9223 6.70786 18.9223Z" fill="#0BAC72"/>
<path d="M6.70786 15.062H24.0554C24.4107 15.062 24.6987 14.774 24.6987 14.4187C24.6987 14.0633 24.4107 13.7754 24.0554 13.7754H6.70786C6.35251 13.7754 6.06458 14.0633 6.06458 14.4187C6.06458 14.774 6.35251 15.062 6.70786 15.062Z" fill="#0BAC72"/>
<path d="M32.6326 3.44043H31.7749C31.4196 3.44043 31.1316 3.72837 31.1316 4.08372C31.1316 4.43907 31.4196 4.72701 31.7749 4.72701H31.9894V39.8934H25.1214C24.7661 39.8934 24.4781 40.1814 24.4781 40.5367C24.4781 40.8921 24.7661 41.18 25.1214 41.18H32.6326C32.988 41.18 33.2759 40.8921 33.2759 40.5367V4.08372C33.2759 3.72837 32.988 3.44043 32.6326 3.44043Z" fill="#0BAC72"/>
<path d="M36.0635 3.44043H35.2058C34.8504 3.44043 34.5625 3.72837 34.5625 4.08372C34.5625 4.43907 34.8504 4.72701 35.2058 4.72701H35.4202V39.8934H35.2058C34.8504 39.8934 34.5625 40.1814 34.5625 40.5367C34.5625 40.8921 34.8504 41.18 35.2058 41.18H36.0635C36.4189 41.18 36.7068 40.8921 36.7068 40.5367V4.08372C36.7068 3.72837 36.4189 3.44043 36.0635 3.44043Z" fill="#0BAC72"/>
</svg>
