<svg width="13" height="12" viewBox="0 0 13 12" fill="none" xmlns="http://www.w3.org/2000/svg">
<path d="M6.59934 0.0515137C3.4741 0.0515137 0.931519 2.51882 0.931519 5.55151C0.931519 8.58421 3.4741 11.0515 6.59934 11.0515C9.72457 11.0515 12.2672 8.58421 12.2672 5.55151C12.2672 2.51882 9.72457 0.0515137 6.59934 0.0515137ZM6.59934 9.88121C4.13912 9.88121 2.13742 7.939 2.13742 5.55151C2.13742 3.16403 4.13912 1.22182 6.59934 1.22182C9.05955 1.22182 11.0613 3.16403 11.0613 5.55151C11.0613 7.939 9.05955 9.88121 6.59934 9.88121Z" fill="#A2A2A2"/>
<path d="M9.55325 5.38167H7.00611V2.40977C7.00611 2.15968 6.79716 1.95691 6.53943 1.95691C6.28171 1.95691 6.07275 2.15968 6.07275 2.40977V5.83453C6.07275 6.08463 6.28171 6.2874 6.53943 6.2874H9.55325C9.81097 6.2874 10.0199 6.08463 10.0199 5.83453C10.0199 5.58444 9.81097 5.38167 9.55325 5.38167Z" fill="#A2A2A2"/>
</svg>
