<svg width="36" height="41" viewBox="0 0 36 41" fill="none" xmlns="http://www.w3.org/2000/svg">
<path d="M28.8983 33.5884C29.0445 33.4705 29.1382 33.29 29.1382 33.0875C29.1382 33.0819 29.1382 3.83937 29.1382 3.83937C29.1382 3.48401 28.8503 3.19608 28.495 3.19608H9.88377C9.42481 1.70768 8.03659 0.622925 6.39964 0.622925C4.78901 0.622925 3.3797 1.69627 2.9161 3.19608H0.854836C0.499484 3.19608 0.211548 3.48401 0.211548 3.83937V40.2924C0.211548 40.6477 0.499484 40.9356 0.854836 40.9356H21.2845C21.4925 40.9356 21.6728 40.842 21.7908 40.696L28.8983 33.5884ZM21.9334 38.7337V33.7308H26.9362L21.9334 38.7337ZM6.39964 1.9095C7.31422 1.9095 8.10838 2.43314 8.4995 3.19608H4.2996C4.69449 2.42859 5.49826 1.9095 6.39964 1.9095ZM1.49812 4.48265H8.75836V8.98567C8.75836 9.57689 8.27744 10.0578 7.68621 10.0578C7.09499 10.0578 6.61406 9.57689 6.61406 8.98567V6.41252C6.61406 6.05717 6.32613 5.76923 5.97078 5.76923C5.61542 5.76923 5.32749 6.05717 5.32749 6.41252V8.98567C5.32749 10.2862 6.38565 11.3444 7.68621 11.3444C8.98677 11.3444 10.0449 10.2862 10.0449 8.98567V4.48265H27.8517V32.4442H21.2901C20.9348 32.4442 20.6468 32.7322 20.6468 33.0875V39.6491H1.49812V4.48265Z" fill="#296ACB"/>
<path d="M23.3486 30.257C23.7039 30.257 23.9919 29.9691 23.9919 29.6137C23.9919 29.2584 23.7039 28.9705 23.3486 28.9705H6.00108C5.64572 28.9705 5.35779 29.2584 5.35779 29.6137C5.35779 29.9691 5.64572 30.257 6.00108 30.257H23.3486Z" fill="#296ACB"/>
<path d="M6.00108 26.3974H23.3486C23.7039 26.3974 23.9919 26.1095 23.9919 25.7541C23.9919 25.3988 23.7039 25.1108 23.3486 25.1108H6.00108C5.64572 25.1108 5.35779 25.3988 5.35779 25.7541C5.35779 26.1095 5.64572 26.3974 6.00108 26.3974Z" fill="#296ACB"/>
<path d="M6.00108 22.5377H23.3486C23.7039 22.5377 23.9919 22.2497 23.9919 21.8944C23.9919 21.539 23.7039 21.2511 23.3486 21.2511H6.00108C5.64572 21.2511 5.35779 21.539 5.35779 21.8944C5.35779 22.2497 5.64572 22.5377 6.00108 22.5377Z" fill="#296ACB"/>
<path d="M6.00108 18.6779H23.3486C23.7039 18.6779 23.9919 18.39 23.9919 18.0346C23.9919 17.6793 23.7039 17.3914 23.3486 17.3914H6.00108C5.64572 17.3914 5.35779 17.6793 5.35779 18.0346C5.35779 18.39 5.64572 18.6779 6.00108 18.6779Z" fill="#296ACB"/>
<path d="M6.00108 14.8182H23.3486C23.7039 14.8182 23.9919 14.5303 23.9919 14.1749C23.9919 13.8196 23.7039 13.5316 23.3486 13.5316H6.00108C5.64572 13.5316 5.35779 13.8196 5.35779 14.1749C5.35779 14.5303 5.64572 14.8182 6.00108 14.8182Z" fill="#296ACB"/>
<path d="M31.9259 3.19604H31.0681C30.7128 3.19604 30.4249 3.48398 30.4249 3.83933C30.4249 4.19469 30.7128 4.48262 31.0681 4.48262H31.2826V39.649H24.4147C24.0593 39.649 23.7714 39.937 23.7714 40.2923C23.7714 40.6477 24.0593 40.9356 24.4147 40.9356H31.9259C32.2812 40.9356 32.5691 40.6477 32.5691 40.2923V3.83933C32.5691 3.48398 32.2812 3.19604 31.9259 3.19604Z" fill="#296ACB"/>
<path d="M35.3567 3.19604H34.499C34.1436 3.19604 33.8557 3.48398 33.8557 3.83933C33.8557 4.19469 34.1436 4.48262 34.499 4.48262H34.7134V39.649H34.499C34.1436 39.649 33.8557 39.937 33.8557 40.2923C33.8557 40.6477 34.1436 40.9356 34.499 40.9356H35.3567C35.7121 40.9356 36 40.6477 36 40.2923V3.83933C36 3.48398 35.7121 3.19604 35.3567 3.19604Z" fill="#296ACB"/>
</svg>
