<svg width="36" height="41" viewBox="0 0 36 41" fill="none" xmlns="http://www.w3.org/2000/svg">
<path d="M28.8803 33.6246C29.0265 33.5068 29.1203 33.3263 29.1203 33.1238C29.1203 33.1181 29.1203 3.87562 29.1203 3.87562C29.1203 3.52027 28.8324 3.23233 28.477 3.23233H9.86583C9.40686 1.74393 8.01864 0.65918 6.38169 0.65918C4.77107 0.65918 3.36175 1.73253 2.89816 3.23233H0.836892C0.481539 3.23233 0.193604 3.52027 0.193604 3.87562V40.3286C0.193604 40.684 0.481539 40.9719 0.836892 40.9719H21.2666C21.4746 40.9719 21.6549 40.8782 21.7728 40.7323L28.8803 33.6246ZM21.9155 38.77V33.7671H26.9183L21.9155 38.77ZM6.38169 1.94576C7.29628 1.94576 8.09044 2.46939 8.48155 3.23233H4.28166C4.67655 2.46485 5.48032 1.94576 6.38169 1.94576ZM1.48018 4.51891H8.74041V9.02192C8.74041 9.61315 8.25949 10.0941 7.66827 10.0941C7.07704 10.0941 6.59612 9.61315 6.59612 9.02192V6.44877C6.59612 6.09342 6.30818 5.80548 5.95283 5.80548C5.59748 5.80548 5.30954 6.09342 5.30954 6.44877V9.02192C5.30954 10.3225 6.36771 11.3806 7.66827 11.3806C8.96882 11.3806 10.027 10.3225 10.027 9.02192V4.51891H27.8337V32.4805H21.2722C20.9168 32.4805 20.6289 32.7684 20.6289 33.1238V39.6853H1.48018V4.51891Z" fill="#BFBFBF"/>
<path d="M23.3306 30.2933C23.686 30.2933 23.9739 30.0054 23.9739 29.65C23.9739 29.2946 23.686 29.0067 23.3306 29.0067H5.98313C5.62778 29.0067 5.33984 29.2946 5.33984 29.65C5.33984 30.0054 5.62778 30.2933 5.98313 30.2933H23.3306Z" fill="#BFBFBF"/>
<path d="M5.98313 26.4337H23.3306C23.686 26.4337 23.9739 26.1457 23.9739 25.7904C23.9739 25.435 23.686 25.1471 23.3306 25.1471H5.98313C5.62778 25.1471 5.33984 25.435 5.33984 25.7904C5.33984 26.1457 5.62778 26.4337 5.98313 26.4337Z" fill="#BFBFBF"/>
<path d="M5.98313 22.5739H23.3306C23.686 22.5739 23.9739 22.286 23.9739 21.9306C23.9739 21.5753 23.686 21.2874 23.3306 21.2874H5.98313C5.62778 21.2874 5.33984 21.5753 5.33984 21.9306C5.33984 22.286 5.62778 22.5739 5.98313 22.5739Z" fill="#BFBFBF"/>
<path d="M5.98313 18.7142H23.3306C23.686 18.7142 23.9739 18.4263 23.9739 18.0709C23.9739 17.7155 23.686 17.4276 23.3306 17.4276H5.98313C5.62778 17.4276 5.33984 17.7155 5.33984 18.0709C5.33984 18.4263 5.62778 18.7142 5.98313 18.7142Z" fill="#BFBFBF"/>
<path d="M5.98313 14.8544H23.3306C23.686 14.8544 23.9739 14.5665 23.9739 14.2112C23.9739 13.8558 23.686 13.5679 23.3306 13.5679H5.98313C5.62778 13.5679 5.33984 13.8558 5.33984 14.2112C5.33984 14.5665 5.62778 14.8544 5.98313 14.8544Z" fill="#BFBFBF"/>
<path d="M31.9079 3.2323H31.0502C30.6948 3.2323 30.4069 3.52024 30.4069 3.87559C30.4069 4.23094 30.6948 4.51888 31.0502 4.51888H31.2646V39.6853H24.3967C24.0414 39.6853 23.7534 39.9732 23.7534 40.3286C23.7534 40.6839 24.0414 40.9719 24.3967 40.9719H31.9079C32.2633 40.9719 32.5512 40.6839 32.5512 40.3286V3.87559C32.5512 3.52024 32.2633 3.2323 31.9079 3.2323Z" fill="#BFBFBF"/>
<path d="M35.3388 3.2323H34.4811C34.1257 3.2323 33.8378 3.52024 33.8378 3.87559C33.8378 4.23094 34.1257 4.51888 34.4811 4.51888H34.6955V39.6853H34.4811C34.1257 39.6853 33.8378 39.9732 33.8378 40.3286C33.8378 40.6839 34.1257 40.9719 34.4811 40.9719H35.3388C35.6941 40.9719 35.9821 40.6839 35.9821 40.3286V3.87559C35.9821 3.52024 35.6941 3.2323 35.3388 3.2323Z" fill="#BFBFBF"/>
</svg>
