<svg width="21" height="20" viewBox="0 0 21 20" fill="none" xmlns="http://www.w3.org/2000/svg">
<g clip-path="url(#clip0)">
<path d="M10.3285 14.1292C13.2683 14.1292 15.6514 11.746 15.6514 8.80627C15.6514 5.86652 13.2683 3.48338 10.3285 3.48338C7.38876 3.48338 5.00562 5.86652 5.00562 8.80627C5.00562 11.746 7.38876 14.1292 10.3285 14.1292Z" fill="#0BAC72"/>
<path d="M16.5832 2.59073C14.9125 0.92008 12.6913 1.90735e-06 10.3286 1.90735e-06C7.96586 1.90735e-06 5.74456 0.92008 4.07392 2.59073C2.40323 4.26145 1.48315 6.4827 1.48315 8.8454C1.48315 13.0137 4.39721 16.6123 8.44546 17.4892L10.3286 20L12.2117 17.4892C16.2599 16.6122 19.174 13.0137 19.174 8.8454C19.174 6.4827 18.2539 4.26145 16.5832 2.59073ZM10.3286 2.3092C13.9111 2.3092 16.8256 5.2238 16.8256 8.80626C16.8256 12.3887 13.9111 15.3033 10.3286 15.3033C6.74605 15.3033 3.83149 12.3887 3.83149 8.80626C3.83149 5.2238 6.74605 2.3092 10.3286 2.3092Z" fill="#0BAC72"/>
</g>
<defs>
<clipPath id="clip0">
<rect width="20" height="20" fill="white" transform="translate(0.328613)"/>
</clipPath>
</defs>
</svg>
