<svg width="20" height="20" viewBox="0 0 20 20" fill="none" xmlns="http://www.w3.org/2000/svg">
<g clip-path="url(#clip0)">
<path d="M17.0696 2.92784C13.1638 -0.976813 6.83215 -0.975875 2.9275 2.92998C-0.977148 6.83584 -0.976211 13.1675 2.92965 17.0721C6.83551 20.9768 13.1671 20.9758 17.0718 17.07C18.947 15.1942 20.0002 12.6502 19.9996 9.99784C19.9991 7.34588 18.9452 4.80276 17.0696 2.92784ZM15.1443 13.9299C15.1439 13.9303 15.1434 13.9308 15.143 13.9312V13.9279L14.6363 14.4312C13.981 15.0947 13.0267 15.3678 12.1196 15.1512C11.2057 14.9066 10.337 14.5172 9.54629 13.9979C8.81168 13.5284 8.1309 12.9796 7.51629 12.3612C6.95078 11.7998 6.44273 11.1834 5.99961 10.5212C5.51492 9.80862 5.13129 9.03237 4.85961 8.21452C4.54816 7.25373 4.80625 6.19948 5.52629 5.4912L6.11961 4.89787C6.28457 4.73217 6.55262 4.73159 6.71828 4.89655C6.71871 4.89698 6.71918 4.89741 6.71961 4.89787L8.59293 6.7712C8.75863 6.93616 8.75922 7.2042 8.59426 7.36987C8.59383 7.3703 8.5934 7.37073 8.59293 7.3712L7.49293 8.4712C7.17731 8.78338 7.13762 9.27948 7.39961 9.63787C7.79746 10.1839 8.23773 10.6977 8.71629 11.1746C9.24984 11.7104 9.82988 12.1979 10.4496 12.6312C10.8077 12.881 11.2932 12.8389 11.6029 12.5312L12.6663 11.4512C12.8312 11.2855 13.0993 11.2849 13.2649 11.4499C13.2654 11.4503 13.2658 11.4508 13.2662 11.4512L15.1429 13.3312C15.3087 13.4962 15.3093 13.7642 15.1443 13.9299Z" fill="#0BAC72"/>
</g>
<defs>
<clipPath id="clip0">
<rect width="20" height="20" fill="white" transform="translate(0 0.000343323)"/>
</clipPath>
</defs>
</svg>
