<svg width="31" height="31" viewBox="0 0 31 31" fill="none" xmlns="http://www.w3.org/2000/svg">
<path d="M30.7128 15.6404C30.7128 7.35613 23.9971 0.640381 15.7128 0.64038C7.42858 0.64038 0.712829 7.35613 0.712829 15.6404C0.722203 23.9208 7.43245 30.631 15.7128 30.6404C23.9971 30.6404 30.7128 23.9246 30.7128 15.6404ZM1.71283 15.6404C1.71283 7.90838 7.98083 1.64038 15.7128 1.64038C23.4448 1.64038 29.7128 7.90838 29.7128 15.6404C29.704 23.3687 23.4411 29.6316 15.7128 29.6404C7.98083 29.6404 1.71283 23.3724 1.71283 15.6404Z" fill="#979797"/>
<path d="M20.0518 23.7723L11.9198 15.6403L20.0518 7.50834C20.239 7.31459 20.239 7.00741 20.0518 6.81366C19.86 6.61503 19.5435 6.60953 19.3448 6.80134L10.8593 15.2868C10.7656 15.3806 10.7128 15.5077 10.7128 15.6403C10.7128 15.773 10.7656 15.9001 10.8593 15.9938L19.3448 24.4793C19.3488 24.4835 19.353 24.4876 19.3571 24.4916C19.5557 24.6834 19.8722 24.678 20.0641 24.4793C20.256 24.2807 20.2505 23.9642 20.0518 23.7723Z" fill="#979797"/>
</svg>
