<svg width="20" height="21" viewBox="0 0 20 21" fill="none" xmlns="http://www.w3.org/2000/svg">
<g clip-path="url(#clip0)">
<path d="M9.9999 15.0083C12.9397 15.0083 15.3228 12.6252 15.3228 9.68544C15.3228 6.74569 12.9397 4.36255 9.9999 4.36255C7.06014 4.36255 4.677 6.74569 4.677 9.68544C4.677 12.6252 7.06014 15.0083 9.9999 15.0083Z" fill="#0BAC72"/>
<path d="M16.2546 3.46987C14.5839 1.79923 12.3626 0.87915 9.99994 0.87915C7.63724 0.87915 5.41595 1.79923 3.7453 3.46987C2.07462 5.1406 1.15454 7.36185 1.15454 9.72455C1.15454 13.8928 4.06859 17.4914 8.11685 18.3683L9.99994 20.8792L11.8831 18.3683C15.9313 17.4914 18.8453 13.8928 18.8453 9.72455C18.8453 7.36185 17.9253 5.1406 16.2546 3.46987ZM9.99994 3.18835C13.5824 3.18835 16.497 6.10295 16.497 9.68541C16.497 13.2679 13.5824 16.1825 9.99994 16.1825C6.41744 16.1825 3.50288 13.2679 3.50288 9.68541C3.50288 6.10295 6.41744 3.18835 9.99994 3.18835Z" fill="#0BAC72"/>
</g>
<defs>
<clipPath id="clip0">
<rect width="20" height="20" fill="white" transform="translate(0 0.87915)"/>
</clipPath>
</defs>
</svg>
