<svg width="18" height="19" viewBox="0 0 18 19" fill="none" xmlns="http://www.w3.org/2000/svg">
<path d="M16.3928 16.9447C16.7974 16.9447 17.148 16.8111 17.446 16.5473L12.3463 11.4474C12.224 11.535 12.1054 11.6202 11.9934 11.7012C11.6117 11.9824 11.302 12.2018 11.0641 12.3591C10.8263 12.5166 10.5099 12.6773 10.1149 12.8413C9.7197 13.0054 9.3515 13.0873 9.00992 13.0873H8.99992H8.98992C8.64832 13.0873 8.28011 13.0055 7.88491 12.8413C7.48971 12.6773 7.17331 12.5166 6.93572 12.3591C6.69791 12.2018 6.38833 11.9825 6.0065 11.7012C5.90009 11.6232 5.78208 11.5376 5.6545 11.446L0.553833 16.5473C0.851842 16.8111 1.20266 16.9447 1.60724 16.9447H16.3928V16.9447Z" fill="#0BAC72"/>
<path d="M1.01462 8.23606C0.633012 7.98164 0.294611 7.69027 0 7.36206V15.1211L4.49485 10.6263C3.59562 9.99849 2.43702 9.20267 1.01462 8.23606Z" fill="#0BAC72"/>
<path d="M16.9956 8.23606C15.6274 9.16208 14.4646 9.95927 13.507 10.6281L18 15.1213V7.36206C17.712 7.68366 17.3772 7.97484 16.9956 8.23606Z" fill="#0BAC72"/>
<path d="M16.3928 2.80176H1.60728C1.09146 2.80176 0.694891 2.97594 0.417078 3.32395C0.139036 3.67213 0.000244141 4.10755 0.000244141 4.62975C0.000244141 5.05155 0.184429 5.50858 0.552635 6.00097C0.920841 6.49316 1.31264 6.87977 1.72784 7.16098C1.95546 7.3218 2.64187 7.79899 3.78708 8.5924C4.40528 9.0208 4.9429 9.3942 5.4049 9.71643C5.7987 9.99081 6.13831 10.2284 6.4187 10.4256C6.45089 10.4482 6.50151 10.4844 6.5687 10.5324C6.64109 10.5844 6.73269 10.6504 6.8457 10.732C7.06331 10.8894 7.2441 11.0166 7.38809 11.1138C7.53188 11.211 7.7061 11.3196 7.91048 11.4402C8.1147 11.5607 8.30731 11.6512 8.4881 11.7114C8.66892 11.7716 8.8363 11.8018 8.99029 11.8018H9.00029H9.01029C9.16425 11.8018 9.33167 11.7716 9.51252 11.7114C9.69327 11.6512 9.88573 11.5609 10.0901 11.4402C10.2943 11.3196 10.4683 11.2108 10.6125 11.1138C10.7565 11.0166 10.9373 10.8894 11.155 10.732C11.2677 10.6504 11.3593 10.5844 11.4317 10.5326C11.4989 10.4844 11.5495 10.4484 11.5819 10.4256C11.8004 10.2736 12.1407 10.037 12.5984 9.71921C13.4312 9.14061 14.6576 8.289 16.2828 7.16098C16.7716 6.81957 17.18 6.40757 17.5082 5.92558C17.8358 5.44358 18 4.93799 18 4.40896C18 3.96696 17.8408 3.58876 17.523 3.27376C17.2048 2.95914 16.828 2.80176 16.3928 2.80176Z" fill="#0BAC72"/>
</svg>
