<svg width="19" height="19" viewBox="0 0 19 19" fill="none" xmlns="http://www.w3.org/2000/svg">
<g clip-path="url(#clip0)">
<path d="M17.2491 16.4977C17.6537 16.4977 18.0043 16.3641 18.3023 16.1003L13.2026 11.0004C13.0803 11.088 12.9617 11.1732 12.8497 11.2542C12.468 11.5354 12.1583 11.7548 11.9204 11.912C11.6826 12.0696 11.3662 12.2302 10.9713 12.3942C10.576 12.5584 10.2078 12.6402 9.86625 12.6402H9.85625H9.84625C9.50464 12.6402 9.13644 12.5584 8.74124 12.3942C8.34604 12.2302 8.02963 12.0696 7.79204 11.912C7.55423 11.7548 7.24465 11.5354 6.86282 11.2542C6.75641 11.1762 6.63841 11.0906 6.51082 10.999L1.41016 16.1003C1.70817 16.3641 2.05899 16.4977 2.46356 16.4977H17.2491Z" fill="black"/>
<path d="M1.87106 7.78855C1.48946 7.53413 1.15106 7.24276 0.856445 6.91455V14.6736L5.35129 10.1788C4.45207 9.55098 3.29346 8.75516 1.87106 7.78855Z" fill="black"/>
<path d="M17.8521 7.78855C16.484 8.71457 15.3212 9.51176 14.3635 10.1806L18.8566 14.6738V6.91455C18.5685 7.23616 18.2337 7.52733 17.8521 7.78855Z" fill="black"/>
<path d="M17.2492 2.35449H2.46373C1.94791 2.35449 1.55134 2.52868 1.27352 2.87669C0.995482 3.22486 0.856689 3.66029 0.856689 4.18248C0.856689 4.60428 1.04087 5.06131 1.40908 5.5537C1.77729 6.0459 2.16909 6.4325 2.58429 6.71372C2.8119 6.87453 3.49831 7.35173 4.64352 8.14513C5.26173 8.57354 5.79935 8.94694 6.26135 9.26916C6.65514 9.54354 6.99475 9.78116 7.27515 9.97835C7.30734 10.0009 7.35796 10.0371 7.42515 10.0852C7.49753 10.1372 7.58914 10.2032 7.70214 10.2848C7.91976 10.4421 8.10055 10.5694 8.24453 10.6666C8.38833 10.7638 8.56254 10.8724 8.76692 10.993C8.97114 11.1134 9.16376 11.204 9.34454 11.2642C9.52536 11.3244 9.69275 11.3546 9.84674 11.3546H9.85674H9.86674C10.0207 11.3546 10.1881 11.3244 10.369 11.2642C10.5497 11.204 10.7422 11.1136 10.9466 10.993C11.1507 10.8724 11.3247 10.7636 11.469 10.6666C11.613 10.5694 11.7937 10.4422 12.0114 10.2848C12.1242 10.2032 12.2158 10.1371 12.2882 10.0853C12.3554 10.0371 12.406 10.0011 12.4384 9.97835C12.6568 9.82636 12.9972 9.58972 13.4548 9.27194C14.2876 8.69334 15.514 7.84173 17.1393 6.71372C17.628 6.37231 18.0364 5.96031 18.3646 5.47831C18.6922 4.99631 18.8565 4.49072 18.8565 3.9617C18.8565 3.5197 18.6972 3.14149 18.3794 2.82649C18.0613 2.51188 17.6845 2.35449 17.2492 2.35449Z" fill="black"/>
</g>
<defs>
<clipPath id="clip0">
<rect width="18" height="18" fill="white" transform="translate(0.856445 0.425781)"/>
</clipPath>
</defs>
</svg>
