<svg width="31" height="31" viewBox="0 0 31 31" fill="none" xmlns="http://www.w3.org/2000/svg">
<path d="M0.0117188 15.6404C0.0117188 23.9246 6.72747 30.6404 15.0117 30.6404C23.296 30.6404 30.0117 23.9246 30.0117 15.6404C30.0023 7.36001 23.2921 0.649755 15.0117 0.640381C6.72747 0.640381 0.0117188 7.35613 0.0117188 15.6404ZM29.0117 15.6404C29.0117 23.3724 22.7437 29.6404 15.0117 29.6404C7.27972 29.6404 1.01172 23.3724 1.01172 15.6404C1.02053 7.91207 7.28341 1.64919 15.0117 1.64038C22.7437 1.64038 29.0117 7.90838 29.0117 15.6404Z" fill="#979797"/>
<path d="M10.6727 7.50842L18.8047 15.6404L10.6727 23.7724C10.4855 23.9662 10.4855 24.2734 10.6727 24.4671C10.8645 24.6657 11.181 24.6712 11.3797 24.4794L19.8652 15.9939C19.9589 15.9002 20.0117 15.773 20.0117 15.6404C20.0117 15.5078 19.9589 15.3807 19.8652 15.2869L11.3797 6.80141C11.3757 6.79723 11.3715 6.79317 11.3674 6.78917C11.1688 6.59735 10.8523 6.60279 10.6604 6.80141C10.4685 7.00004 10.474 7.31654 10.6727 7.50842Z" fill="#979797"/>
</svg>
