<svg width="25" height="24" viewBox="0 0 25 24" fill="none" xmlns="http://www.w3.org/2000/svg">
<path d="M21.758 20.0462C22.0362 20.3244 22.0362 20.7756 21.758 21.0538C21.4797 21.3321 21.0286 21.3321 20.7503 21.0538L17.3303 17.6338C17.0521 17.3556 17.0521 16.9044 17.3303 16.6262C17.6086 16.3479 18.0597 16.3479 18.338 16.6262L21.758 20.0462ZM10.9942 17.8425C6.82302 17.8425 3.44165 14.4611 3.44165 10.29C3.44165 6.11887 6.82302 2.7375 10.9942 2.7375C15.1653 2.7375 18.5466 6.11887 18.5466 10.29C18.5466 14.4611 15.1653 17.8425 10.9942 17.8425ZM10.9942 16.4175C14.3783 16.4175 17.1216 13.6741 17.1216 10.29C17.1216 6.90588 14.3783 4.1625 10.9942 4.1625C7.61003 4.1625 4.86665 6.90588 4.86665 10.29C4.86665 13.6741 7.61003 16.4175 10.9942 16.4175ZM7.47915 9.72C7.47915 9.98234 7.26649 10.195 7.00415 10.195C6.74182 10.195 6.52915 9.98234 6.52915 9.72C6.52915 7.56885 8.273 5.825 10.4241 5.825C10.6865 5.825 10.8992 6.03767 10.8992 6.3C10.8992 6.56234 10.6865 6.775 10.4241 6.775C8.79767 6.775 7.47915 8.09352 7.47915 9.72Z" fill="white"/>
</svg>
