<svg width="24" height="25" viewBox="0 0 24 25" fill="none" xmlns="http://www.w3.org/2000/svg">
<path d="M21.0536 20.3585C21.3319 20.6368 21.3319 21.0879 21.0536 21.3661C20.7754 21.6444 20.3242 21.6444 20.046 21.3661L16.626 17.9461C16.3477 17.6679 16.3477 17.2168 16.626 16.9385C16.9042 16.6603 17.3554 16.6603 17.6336 16.9385L21.0536 20.3585ZM10.2898 18.1548C6.11867 18.1548 2.7373 14.7735 2.7373 10.6023C2.7373 6.4312 6.11867 3.04984 10.2898 3.04984C14.4609 3.04984 17.8423 6.4312 17.8423 10.6023C17.8423 14.7735 14.4609 18.1548 10.2898 18.1548ZM10.2898 16.7298C13.6739 16.7298 16.4173 13.9865 16.4173 10.6023C16.4173 7.21821 13.6739 4.47484 10.2898 4.47484C6.90568 4.47484 4.1623 7.21821 4.1623 10.6023C4.1623 13.9865 6.90568 16.7298 10.2898 16.7298ZM6.7748 10.0323C6.7748 10.2947 6.56214 10.5073 6.2998 10.5073C6.03747 10.5073 5.8248 10.2947 5.8248 10.0323C5.8248 7.88119 7.56866 6.13734 9.7198 6.13734C9.98214 6.13734 10.1948 6.35 10.1948 6.61234C10.1948 6.87467 9.98214 7.08734 9.7198 7.08734C8.09333 7.08734 6.7748 8.40586 6.7748 10.0323Z" fill="#3F3356"/>
</svg>
