<svg width="15" height="16" viewBox="0 0 15 16" fill="none" xmlns="http://www.w3.org/2000/svg">
<g clip-path="url(#clip0)">
<path d="M11.4812 9.10718H7.32377C7.22248 9.10718 7.14014 9.18641 7.14014 9.28507V11.4037C7.14014 11.5017 7.22232 11.5814 7.32377 11.5814H11.4812C11.5828 11.5814 11.6651 11.5022 11.6651 11.4037V9.28477C11.665 9.18641 11.5828 9.10718 11.4812 9.10718Z" fill="#AFAFAF"/>
<path d="M9.67297 12.6658H7.32377C7.22248 12.6658 7.14014 12.7453 7.14014 12.844V14.9623C7.14014 15.0606 7.22232 15.1403 7.32377 15.1403H9.67312C9.77442 15.1403 9.85676 15.0611 9.85676 14.9623V12.8437C9.8566 12.7453 9.77457 12.6658 9.67297 12.6658Z" fill="#AFAFAF"/>
<path d="M13.069 4.87073H7.32377C7.22248 4.87073 7.14014 4.95011 7.14014 5.04847V7.16678C7.14014 7.26499 7.22232 7.34482 7.32377 7.34482H13.069C13.1701 7.34482 13.2525 7.26514 13.2525 7.16678V5.04832C13.2522 4.95011 13.1701 4.87073 13.069 4.87073Z" fill="#AFAFAF"/>
<path d="M14.6563 0.633667H7.32377C7.22248 0.633667 7.14014 0.71335 7.14014 0.811712V2.93002C7.14014 3.02853 7.22232 3.10807 7.32377 3.10807H14.6565C14.7577 3.10807 14.8399 3.02868 14.8399 2.93002V0.811561C14.8398 0.71335 14.7579 0.633667 14.6563 0.633667Z" fill="#AFAFAF"/>
<path d="M6.08742 10.4958H4.84283V0.916494C4.84283 0.750048 4.70363 0.615234 4.53211 0.615234H2.02615C1.85464 0.615234 1.71543 0.750048 1.71543 0.916494V10.4958H0.471C0.351218 10.4958 0.24231 10.5625 0.190731 10.6672C0.138996 10.7718 0.153755 10.8957 0.228639 10.9861L3.03692 15.0462C3.09596 15.1176 3.18498 15.1586 3.27913 15.1586C3.37328 15.1586 3.46214 15.1176 3.52118 15.0462L6.32947 10.9861C6.40435 10.8956 6.41927 10.7718 6.36753 10.6672C6.31595 10.5627 6.2072 10.4958 6.08742 10.4958Z" fill="#AFAFAF"/>
</g>
<defs>
<clipPath id="clip0">
<rect width="15" height="14.5433" fill="white" transform="translate(0 0.615234)"/>
</clipPath>
</defs>
</svg>
