<svg width="21" height="21" viewBox="0 0 21 21" fill="none" xmlns="http://www.w3.org/2000/svg">
<g clip-path="url(#clip0)">
<path d="M7.83667 14.8345V18.6995C7.83667 18.9695 8.01 19.2086 8.26667 19.2936C8.33083 19.3145 8.39667 19.3245 8.46167 19.3245C8.65667 19.3245 8.845 19.2328 8.965 19.0695L11.2258 15.9928L7.83667 14.8345Z" fill="white"/>
<path d="M20.2825 0.273622C20.0908 0.137789 19.8391 0.119455 19.6308 0.228622L0.880792 10.0203C0.659126 10.1361 0.528292 10.3728 0.546626 10.622C0.565792 10.872 0.731626 11.0853 0.967459 11.1661L6.17996 12.9478L17.2808 3.45612L8.69079 13.8053L17.4266 16.7911C17.4916 16.8128 17.56 16.8245 17.6283 16.8245C17.7416 16.8245 17.8541 16.7936 17.9533 16.7336C18.1116 16.637 18.2191 16.4745 18.2466 16.292L20.5383 0.875289C20.5725 0.641955 20.4741 0.410289 20.2825 0.273622Z" fill="white"/>
</g>
<defs>
<clipPath id="clip0">
<rect width="20" height="20" fill="white" transform="translate(0.544922 0.157715)"/>
</clipPath>
</defs>
</svg>
