<svg width="20" height="21" viewBox="0 0 20 21" fill="none" xmlns="http://www.w3.org/2000/svg">
<g clip-path="url(#clip0)">
<path d="M7.29175 15.5498V19.4148C7.29175 19.6848 7.46508 19.924 7.72175 20.009C7.78591 20.0298 7.85175 20.0398 7.91675 20.0398C8.11174 20.0398 8.30008 19.9481 8.42008 19.7848L10.6809 16.7081L7.29175 15.5498Z" fill="#0BAC72"/>
<path d="M19.7375 0.988954C19.5459 0.853121 19.2942 0.834787 19.0859 0.943954L0.33587 10.7356C0.114204 10.8515 -0.0166296 11.0881 0.00170373 11.3373C0.0208704 11.5873 0.186704 11.8006 0.422537 11.8815L5.63504 13.6631L16.7359 4.17145L8.14587 14.5206L16.8817 17.5065C16.9467 17.5281 17.015 17.5398 17.0834 17.5398C17.1967 17.5398 17.3092 17.509 17.4084 17.449C17.5667 17.3523 17.6742 17.1898 17.7017 17.0073L19.9934 1.59062C20.0275 1.35729 19.9292 1.12562 19.7375 0.988954Z" fill="#0BAC72"/>
</g>
<defs>
<clipPath id="clip0">
<rect width="20" height="20" fill="white" transform="translate(0 0.873047)"/>
</clipPath>
</defs>
</svg>
